<svg xmlns="http://www.w3.org/2000/svg" xmlns:xlink="http://www.w3.org/1999/xlink" width="20" height="20" viewBox="0 0 20 20">
  <defs>
    <style>
      .cls-1 {
        fill: #bdc3c7;
        fill-rule: evenodd;
        opacity: 0.7;
        filter: url(#filter);
      }
    </style>
    <filter id="filter" x="529" y="66" width="20" height="20" filterUnits="userSpaceOnUse">
      <feFlood result="flood" flood-color="#b7bacd"/>
      <feComposite result="composite" operator="in" in2="SourceGraphic"/>
      <feBlend result="blend" in2="SourceGraphic"/>
    </filter>
  </defs>
  <path id="basket" class="cls-1" d="M548.946,73.765l0.024,0.006-2.5,11.25-0.024-.006a1.231,1.231,0,0,1-1.2.985h-12.5a1.231,1.231,0,0,1-1.2-.985l-0.024.006-2.5-11.25,0.024-.006A1.177,1.177,0,0,1,529,73.5a1.25,1.25,0,0,1,1.25-1.25h2.5a6.25,6.25,0,1,1,12.5,0h2.5A1.25,1.25,0,0,1,549,73.5,1.177,1.177,0,0,1,548.946,73.765ZM539,68.5a3.75,3.75,0,0,0-3.75,3.75h7.5A3.75,3.75,0,0,0,539,68.5Zm5,8.75A1.25,1.25,0,0,1,542.75,76V74.75h-7.5V76a1.25,1.25,0,1,1-2.5,0V74.75h-0.942l1.945,8.75h10.494l1.945-8.75H545.25V76A1.25,1.25,0,0,1,544,77.25Z" transform="translate(-529 -66)"/>
</svg>
