<svg xmlns="http://www.w3.org/2000/svg" xmlns:xlink="http://www.w3.org/1999/xlink" width="22.375" height="22.375" viewBox="0 0 22.375 22.375">
  <defs>
    <style>
      .cls-1 {
        fill: #bdc3c7;
        fill-rule: evenodd;
        filter: url(#filter);
      }
    </style>
    <filter id="filter" x="168.813" y="65.813" width="22.375" height="22.375" filterUnits="userSpaceOnUse">
      <feFlood result="flood" flood-color="#fff"/>
      <feComposite result="composite" operator="in" in2="SourceGraphic"/>
      <feBlend result="blend" in2="SourceGraphic"/>
    </filter>
  </defs>
  <path id="tooltip" class="cls-1" d="M188.4,84h-3.62l-3.79,3.79h0a1.4,1.4,0,0,1-1.98,0h0L175.22,84H171.6a2.8,2.8,0,0,1-2.8-2.8V68.6a2.8,2.8,0,0,1,2.8-2.8h16.8a2.8,2.8,0,0,1,2.8,2.8V81.2A2.8,2.8,0,0,1,188.4,84Zm0-14a1.4,1.4,0,0,0-1.4-1.4H173a1.4,1.4,0,0,0-1.4,1.4v9.8a1.4,1.4,0,0,0,1.4,1.4h2.8a1.4,1.4,0,0,1,.99.41h0l3.21,3.21,3.21-3.21h0a1.394,1.394,0,0,1,.99-0.41H187a1.4,1.4,0,0,0,1.4-1.4V70Zm-4.2,8.4h-8.4a1.4,1.4,0,0,1,0-2.8h8.4A1.4,1.4,0,0,1,184.2,78.4Zm0-4.2h-8.4a1.4,1.4,0,1,1,0-2.8h8.4A1.4,1.4,0,1,1,184.2,74.2Z" transform="translate(-168.813 -65.813)"/>
</svg>
