<svg xmlns="http://www.w3.org/2000/svg" xmlns:xlink="http://www.w3.org/1999/xlink" width="19" height="21" viewBox="0 0 19 21">
  <defs>
    <style>
      .cls-1 {
        fill: #bdc3c7;
        fill-rule: evenodd;
        opacity: 0.7;
        filter: url(#filter);
      }
    </style>
    <filter id="filter" x="351" y="66" width="19" height="21" filterUnits="userSpaceOnUse">
      <feFlood result="flood" flood-color="#b7bacd"/>
      <feComposite result="composite" operator="in" in2="SourceGraphic"/>
      <feBlend result="blend" in2="SourceGraphic"/>
    </filter>
  </defs>
  <path id="card" class="cls-1" d="M369.993,77.308a4.8,4.8,0,0,1-4.747,4.849,4.656,4.656,0,0,1-3.774-1.957l-0.023.018L360.5,78.924l-0.95,1.293-0.013-.01a4.692,4.692,0,0,1-3.784,1.949,4.8,4.8,0,0,1-4.746-4.849,4.878,4.878,0,0,1,.962-2.9l-0.013-.01s6.962-8.406,8.544-8.406,8.543,8.406,8.543,8.406l-0.013.01A4.878,4.878,0,0,1,369.993,77.308Zm-11.075,6.466V82.157a1.582,1.582,0,1,1,3.164,0v1.617a1.617,1.617,0,0,1,0,3.233h-3.164A1.617,1.617,0,0,1,358.918,83.773Z" transform="translate(-351 -66)"/>
</svg>
